<?xml version="1.0" standalone="no"?>
<!DOCTYPE svg PUBLIC "-//W3C//DTD SVG 20010904//EN"
 "http://www.w3.org/TR/2001/REC-SVG-20010904/DTD/svg10.dtd">
<svg version="1.0" xmlns="http://www.w3.org/2000/svg"
 width="200.000000pt" height="40.000000pt" viewBox="0 0 200.000000 40.000000"
 preserveAspectRatio="xMidYMid meet">
<metadata>
Created by potrace 1.16, written by Peter Selinger 2001-2019
</metadata>
<g transform="translate(0.000000,40.000000) scale(0.100000,-0.100000)"
fill="#000000" stroke="none">
<path d="M314 384 c3 -9 6 -23 6 -32 1 -15 3 -14 15 3 9 10 28 25 43 31 26 12
25 12 -22 13 -40 1 -47 -2 -42 -15z"/>
<path d="M784 385 c8 -8 19 -15 24 -15 15 0 44 -38 38 -48 -3 -6 2 -8 14 -5
11 3 20 11 20 18 0 17 48 52 80 58 14 2 -24 5 -83 6 -96 1 -107 -1 -93 -14z"/>
<path d="M1197 384 c37 -16 58 -45 67 -92 9 -48 -10 -62 -84 -62 -55 0 -61 2
-72 25 -17 37 -68 35 -91 -4 -21 -36 -21 -54 -1 -97 21 -44 68 -49 86 -9 10
23 16 25 82 25 l71 0 27 53 c14 28 40 80 57 115 l31 62 -102 -1 c-98 -1 -101
-1 -71 -15z"/>
<path d="M1550 391 c0 -5 11 -29 25 -52 14 -24 25 -50 25 -57 0 -7 13 -36 30
-65 l30 -52 0 118 0 117 -55 0 c-30 0 -55 -4 -55 -9z"/>
<path d="M1814 378 c3 -13 6 -74 6 -135 l0 -113 90 0 90 0 0 135 0 135 -96 0
c-95 0 -96 0 -90 -22z"/>
<path d="M470 253 c-22 -8 -50 -35 -50 -48 0 -6 9 -21 20 -33 19 -20 30 -22
140 -22 112 0 120 1 134 22 42 59 -3 88 -136 87 -51 0 -100 -3 -108 -6z"/>
<path d="M1440 200 c0 -5 4 -10 9 -10 6 0 13 5 16 10 3 6 -1 10 -9 10 -9 0
-16 -4 -16 -10z"/>
<path d="M150 81 c0 -27 -3 -56 -6 -65 -5 -14 9 -16 122 -16 99 1 124 3 109
12 -29 15 -82 74 -90 98 -5 17 -15 20 -71 20 l-64 0 0 -49z"/>
<path d="M860 84 c-9 -3 -20 -14 -25 -26 -6 -12 -26 -29 -45 -40 l-35 -18 105
1 c58 1 97 3 88 6 -10 2 -18 9 -18 14 0 5 -6 9 -14 9 -17 0 -48 39 -40 52 3 4
4 7 2 7 -2 -1 -10 -3 -18 -5z"/>
<path d="M1374 62 c-6 -4 -13 -19 -16 -34 l-5 -28 98 0 c90 0 117 8 89 25 -5
3 -10 15 -10 26 0 17 -7 19 -72 19 -40 0 -78 -4 -84 -8z"/>
</g>
</svg>
